<svg width="476" height="74" viewBox="0 0 476 74" fill="none" xmlns="http://www.w3.org/2000/svg">
<circle cx="37.121" cy="36.8789" r="34.8789" fill="white" stroke="#002093" stroke-width="4"/>
<mask id="mask0" mask-type="alpha" maskUnits="userSpaceOnUse" x="0" y="0" width="74" height="74">
<circle cx="37" cy="37" r="37" fill="white"/>
</mask>
<g mask="url(#mask0)">
<path d="M37.3924 16C28.0561 16 20.0842 21.9036 17.1397 30.0562H57.7888C54.7724 21.9036 46.8006 16 37.3924 16Z" fill="#F2B200"/>
<path d="M37.4283 58.9285C46.8531 58.9285 54.839 52.9375 57.7888 44.4924H17.1397C20.0895 52.9375 28.0754 58.9285 37.4283 58.9285Z" fill="#83BF4F"/>
<path d="M17.2163 30.0562C16.4293 32.2938 16 34.748 16 37.2743C16 39.8006 16.4293 42.2547 17.2163 44.4923H57.7122C58.4992 42.2547 58.9285 39.8006 58.9285 37.2743C58.9285 34.748 58.4992 32.2938 57.7122 30.0562H17.2163Z" fill="white"/>
<path d="M37.2743 42.9728C40.4215 42.9728 42.9728 40.4215 42.9728 37.2743C42.9728 34.1272 40.4215 31.5759 37.2743 31.5759C34.1271 31.5759 31.5758 34.1272 31.5758 37.2743C31.5758 40.4215 34.1271 42.9728 37.2743 42.9728Z" fill="#428BC1"/>
<path d="M37.2743 42.213C40.0018 42.213 42.213 40.0019 42.213 37.2743C42.213 34.5468 40.0018 32.3356 37.2743 32.3356C34.5467 32.3356 32.3356 34.5468 32.3356 37.2743C32.3356 40.0019 34.5467 42.213 37.2743 42.213Z" fill="white"/>
<path d="M35.5325 33.0051C35.7301 33.0051 35.8902 32.845 35.8902 32.6474C35.8902 32.4498 35.7301 32.2897 35.5325 32.2897C35.3349 32.2897 35.1747 32.4498 35.1747 32.6474C35.1747 32.845 35.3349 33.0051 35.5325 33.0051Z" fill="#428BC1"/>
<path d="M34.3877 33.6491C34.5853 33.6491 34.7454 33.489 34.7454 33.2914C34.7454 33.0938 34.5853 32.9337 34.3877 32.9337C34.1901 32.9337 34.03 33.0938 34.03 33.2914C34.03 33.489 34.1901 33.6491 34.3877 33.6491Z" fill="#428BC1"/>
<path d="M33.4576 34.5792C33.6552 34.5792 33.8154 34.4191 33.8154 34.2215C33.8154 34.0239 33.6552 33.8638 33.4576 33.8638C33.26 33.8638 33.0999 34.0239 33.0999 34.2215C33.0999 34.4191 33.26 34.5792 33.4576 34.5792Z" fill="#428BC1"/>
<path d="M32.8137 35.724C33.0112 35.724 33.1714 35.5638 33.1714 35.3662C33.1714 35.1686 33.0112 35.0085 32.8137 35.0085C32.6161 35.0085 32.4559 35.1686 32.4559 35.3662C32.4559 35.5638 32.6161 35.724 32.8137 35.724Z" fill="#428BC1"/>
<path d="M32.4559 37.0118C32.6535 37.0118 32.8137 36.8516 32.8137 36.6541C32.8137 36.4565 32.6535 36.2963 32.4559 36.2963C32.2584 36.2963 32.0982 36.4565 32.0982 36.6541C32.0982 36.8516 32.2584 37.0118 32.4559 37.0118Z" fill="#428BC1"/>
<path d="M32.4559 38.2997C32.6535 38.2997 32.8137 38.1395 32.8137 37.942C32.8137 37.7444 32.6535 37.5842 32.4559 37.5842C32.2584 37.5842 32.0982 37.7444 32.0982 37.942C32.0982 38.1395 32.2584 38.2997 32.4559 38.2997Z" fill="#428BC1"/>
<path d="M32.8137 39.5875C33.0112 39.5875 33.1714 39.4274 33.1714 39.2298C33.1714 39.0322 33.0112 38.8721 32.8137 38.8721C32.6161 38.8721 32.4559 39.0322 32.4559 39.2298C32.4559 39.4274 32.6161 39.5875 32.8137 39.5875Z" fill="#428BC1"/>
<path d="M33.4576 40.7323C33.6552 40.7323 33.8154 40.5721 33.8154 40.3745C33.8154 40.1769 33.6552 40.0168 33.4576 40.0168C33.26 40.0168 33.0999 40.1769 33.0999 40.3745C33.0999 40.5721 33.26 40.7323 33.4576 40.7323Z" fill="#428BC1"/>
<path d="M34.3877 41.6624C34.5853 41.6624 34.7454 41.5023 34.7454 41.3047C34.7454 41.1071 34.5853 40.947 34.3877 40.947C34.1901 40.947 34.03 41.1071 34.03 41.3047C34.03 41.5023 34.1901 41.6624 34.3877 41.6624Z" fill="#428BC1"/>
<path d="M35.5325 42.3063C35.7301 42.3063 35.8902 42.1461 35.8902 41.9486C35.8902 41.751 35.7301 41.5908 35.5325 41.5908C35.3349 41.5908 35.1747 41.751 35.1747 41.9486C35.1747 42.1461 35.3349 42.3063 35.5325 42.3063Z" fill="#428BC1"/>
<path d="M36.7488 42.5925C36.9463 42.5925 37.1065 42.4323 37.1065 42.2348C37.1065 42.0372 36.9463 41.877 36.7488 41.877C36.5512 41.877 36.391 42.0372 36.391 42.2348C36.391 42.4323 36.5512 42.5925 36.7488 42.5925Z" fill="#428BC1"/>
<path d="M37.7504 42.3063C37.7504 42.0917 37.8935 41.9486 38.0366 41.877C38.2513 41.877 38.3944 42.0201 38.4659 42.1632C38.4659 42.3778 38.3228 42.5209 38.1797 42.5925C37.8935 42.664 37.7504 42.5209 37.7504 42.3063Z" fill="#428BC1"/>
<path d="M39.3245 42.3063C39.5221 42.3063 39.6822 42.1461 39.6822 41.9486C39.6822 41.751 39.5221 41.5908 39.3245 41.5908C39.1269 41.5908 38.9668 41.751 38.9668 41.9486C38.9668 42.1461 39.1269 42.3063 39.3245 42.3063Z" fill="#428BC1"/>
<path d="M40.4693 41.6624C40.6668 41.6624 40.827 41.5023 40.827 41.3047C40.827 41.1071 40.6668 40.947 40.4693 40.947C40.2717 40.947 40.1115 41.1071 40.1115 41.3047C40.1115 41.5023 40.2717 41.6624 40.4693 41.6624Z" fill="#428BC1"/>
<path d="M41.3994 40.7323C41.5969 40.7323 41.7571 40.5721 41.7571 40.3745C41.7571 40.1769 41.5969 40.0168 41.3994 40.0168C41.2018 40.0168 41.0416 40.1769 41.0416 40.3745C41.0416 40.5721 41.2018 40.7323 41.3994 40.7323Z" fill="#428BC1"/>
<path d="M42.0433 39.5875C42.2409 39.5875 42.401 39.4274 42.401 39.2298C42.401 39.0322 42.2409 38.8721 42.0433 38.8721C41.8457 38.8721 41.6855 39.0322 41.6855 39.2298C41.6855 39.4274 41.8457 39.5875 42.0433 39.5875Z" fill="#428BC1"/>
<path d="M42.401 38.2997C42.5986 38.2997 42.7587 38.1395 42.7587 37.942C42.7587 37.7444 42.5986 37.5842 42.401 37.5842C42.2034 37.5842 42.0433 37.7444 42.0433 37.942C42.0433 38.1395 42.2034 38.2997 42.401 38.2997Z" fill="#428BC1"/>
<path d="M42.401 37.0118C42.1864 37.0118 42.0433 36.8687 41.9717 36.7256C41.9717 36.511 42.1148 36.3679 42.2579 36.2963C42.4726 36.2963 42.6157 36.4394 42.6872 36.5825C42.7588 36.7972 42.6157 36.9403 42.401 37.0118Z" fill="#428BC1"/>
<path d="M42.0433 35.724C42.2409 35.724 42.401 35.5638 42.401 35.3662C42.401 35.1686 42.2409 35.0085 42.0433 35.0085C41.8457 35.0085 41.6855 35.1686 41.6855 35.3662C41.6855 35.5638 41.8457 35.724 42.0433 35.724Z" fill="#428BC1"/>
<path d="M41.3994 34.5792C41.5969 34.5792 41.7571 34.4191 41.7571 34.2215C41.7571 34.0239 41.5969 33.8638 41.3994 33.8638C41.2018 33.8638 41.0416 34.0239 41.0416 34.2215C41.0416 34.4191 41.2018 34.5792 41.3994 34.5792Z" fill="#428BC1"/>
<path d="M40.4693 33.6491C40.6668 33.6491 40.827 33.489 40.827 33.2914C40.827 33.0938 40.6668 32.9337 40.4693 32.9337C40.2717 32.9337 40.1115 33.0938 40.1115 33.2914C40.1115 33.489 40.2717 33.6491 40.4693 33.6491Z" fill="#428BC1"/>
<path d="M39.6822 32.7905C39.6107 33.0051 39.396 33.0767 39.1814 33.0051C38.9668 32.9336 38.8952 32.7189 38.9668 32.5043C39.0383 32.2896 39.2529 32.2181 39.4676 32.2896C39.6822 32.4327 39.7538 32.6474 39.6822 32.7905Z" fill="#428BC1"/>
<path d="M38.3944 32.3612C38.3944 32.5759 38.1797 32.719 37.9651 32.6474C37.7504 32.6474 37.6073 32.4328 37.6789 32.2181C37.6789 32.0035 37.8935 31.8604 38.1082 31.9319C38.3228 32.0035 38.4659 32.2181 38.3944 32.3612Z" fill="#428BC1"/>
<path d="M37.1065 32.2897C37.1065 32.5044 36.9634 32.6475 36.8203 32.719C36.6057 32.719 36.4626 32.5759 36.391 32.4328C36.391 32.2182 36.5341 32.0751 36.6772 32.0035C36.8919 31.932 37.1065 32.0751 37.1065 32.2897Z" fill="#428BC1"/>
<path d="M37.3927 38.3712C37.9854 38.3712 38.4659 37.8907 38.4659 37.2979C38.4659 36.7052 37.9854 36.2247 37.3927 36.2247C36.8 36.2247 36.3195 36.7052 36.3195 37.2979C36.3195 37.8907 36.8 38.3712 37.3927 38.3712Z" fill="#428BC1"/>
<path d="M37.3927 32.2897L37.2496 35.3662L37.3927 37.298L37.6074 35.3662L37.3927 32.2897Z" fill="#428BC1"/>
<path d="M36.1049 32.4328L36.7488 35.5093L37.3927 37.298L37.1065 35.3662L36.1049 32.4328Z" fill="#428BC1"/>
<path d="M34.8885 32.9337L36.3195 35.724L37.3927 37.2981L36.6057 35.5094L34.8885 32.9337Z" fill="#428BC1"/>
<path d="M33.8869 33.7206L35.9617 36.0817L37.3927 37.298L36.1764 35.7955L33.8869 33.7206Z" fill="#428BC1"/>
<path d="M33.0999 34.7938L35.6756 36.511L37.3927 37.298L35.8187 36.1532L33.0999 34.7938Z" fill="#428BC1"/>
<path d="M32.599 36.0102L35.5325 36.9403L37.3927 37.298L35.604 36.6541L32.599 36.0102Z" fill="#428BC1"/>
<path d="M32.3844 37.298L35.5325 37.4411L37.3927 37.298L35.5325 37.1549L32.3844 37.298Z" fill="#428BC1"/>
<path d="M32.599 38.5859L35.604 37.942L37.3927 37.298L35.5325 37.6558L32.599 38.5859Z" fill="#428BC1"/>
<path d="M33.0999 39.8022L35.8187 38.4428L37.3927 37.298L35.6756 38.0851L33.0999 39.8022Z" fill="#428BC1"/>
<path d="M33.8869 40.8039L36.1764 38.8005L37.3927 37.298L35.9617 38.5143L33.8869 40.8039Z" fill="#428BC1"/>
<path d="M34.8885 41.6624L36.6057 39.0152L37.3927 37.298L36.3195 38.8721L34.8885 41.6624Z" fill="#428BC1"/>
<path d="M36.1049 42.1633L37.1065 39.2298L37.3927 37.298L36.7488 39.0867L36.1049 42.1633Z" fill="#428BC1"/>
<path d="M37.3927 42.3064L37.6074 39.2298L37.3927 37.298L37.2496 39.2298L37.3927 42.3064Z" fill="#428BC1"/>
<path d="M38.6806 42.1633L38.1082 39.0867L37.3927 37.298L37.7505 39.2298L38.6806 42.1633Z" fill="#428BC1"/>
<path d="M39.8969 41.6624L38.5375 38.8721L37.3927 37.298L38.2513 39.0867L39.8969 41.6624Z" fill="#428BC1"/>
<path d="M40.9701 40.8039L38.8952 38.5143L37.3927 37.298L38.6806 38.8005L40.9701 40.8039Z" fill="#428BC1"/>
<path d="M41.7571 39.8022L39.1814 38.0851L37.3927 37.298L38.9668 38.4428L41.7571 39.8022Z" fill="#428BC1"/>
<path d="M42.2579 38.5859L39.3245 37.6558L37.3927 37.298L39.253 37.942L42.2579 38.5859Z" fill="#428BC1"/>
<path d="M42.401 37.298L39.3245 37.0833L37.3927 37.298L39.3245 37.4411L42.401 37.298Z" fill="#428BC1"/>
<path d="M42.2579 36.0102L39.253 36.6541L37.3927 37.298L39.3245 36.9403L42.2579 36.0102Z" fill="#428BC1"/>
<path d="M41.7571 34.7938L38.9668 36.1532L37.3927 37.298L39.1814 36.511L41.7571 34.7938Z" fill="#428BC1"/>
<path d="M40.9701 33.7922L38.6806 35.7955L37.3927 37.298L38.8952 36.0817L40.9701 33.7922Z" fill="#428BC1"/>
<path d="M39.8969 32.9337L38.2513 35.5809L37.3927 37.2981L38.5375 35.724L39.8969 32.9337Z" fill="#428BC1"/>
<path d="M38.7521 32.4328L37.7505 35.3662L37.3927 37.298L38.1082 35.5093L38.7521 32.4328Z" fill="#428BC1"/>
<g filter="url(#filter0_d)">
<path d="M54.902 22.3629L62.9196 24.0489Z" fill="white"/>
<path d="M54.902 22.3629L62.9196 24.0489" stroke="#002093" stroke-width="1.85746" stroke-linecap="round" stroke-linejoin="round"/>
<path d="M58.9108 23.2059L57.0141 32.2258Z" fill="white"/>
<path d="M58.9108 23.2059L57.0141 32.2258" stroke="#002093" stroke-width="1.85746" stroke-linecap="round" stroke-linejoin="round"/>
<path d="M51.0009 30.9612L63.0273 33.4903Z" fill="white"/>
<path d="M51.0009 30.9612L63.0273 33.4903" stroke="#002093" stroke-width="1.85746" stroke-linecap="round" stroke-linejoin="round"/>
<path d="M60.7321 33.6907L58.2831 46.0975L53.4313 49.2633L50.2655 44.4115L52.7145 32.0047" fill="white"/>
<path d="M60.7321 33.6907L58.2831 46.0975L53.4313 49.2633L50.2655 44.4115L52.7145 32.0047" stroke="#002093" stroke-width="1.85746" stroke-linecap="round" stroke-linejoin="round"/>
<path d="M50.8977 41.4048L53.9043 42.0371Z" fill="white"/>
<path d="M50.8977 41.4048L53.9043 42.0371" stroke="#002093" stroke-width="1.85746" stroke-linecap="round" stroke-linejoin="round"/>
<path d="M52.1622 35.3915L55.1689 36.0238Z" fill="white"/>
<path d="M52.1622 35.3915L55.1689 36.0238" stroke="#002093" stroke-width="1.85746" stroke-linecap="round" stroke-linejoin="round"/>
<path d="M52.1667 55.2765L53.4313 49.2633Z" fill="white"/>
<path d="M52.1667 55.2765L53.4313 49.2633" stroke="#002093" stroke-width="1.85746" stroke-linecap="round" stroke-linejoin="round"/>
</g>
</g>
<path d="M93.7699 32H98.0753V24.7812H101.217L105.075 32H109.828L105.503 24.0852C107.82 23.0909 109.102 21.0724 109.102 18.2884C109.102 14.2415 106.428 11.6364 101.804 11.6364H93.7699V32ZM98.0753 21.321V15.1562H100.979C103.464 15.1562 104.668 16.2599 104.668 18.2884C104.668 20.3068 103.464 21.321 100.999 21.321H98.0753ZM118.779 32.2983C122.558 32.2983 125.103 30.4588 125.7 27.625L121.782 27.3665C121.355 28.5298 120.261 29.1364 118.849 29.1364C116.731 29.1364 115.389 27.7344 115.389 25.4574V25.4474H125.789V24.2841C125.789 19.0938 122.647 16.5284 118.61 16.5284C114.116 16.5284 111.203 19.7202 111.203 24.4332C111.203 29.2756 114.076 32.2983 118.779 32.2983ZM115.389 22.8224C115.478 21.0824 116.801 19.6903 118.68 19.6903C120.52 19.6903 121.792 21.0028 121.802 22.8224H115.389ZM128.554 32H132.789V22.8324C132.789 21.142 133.863 20.0185 135.275 20.0185C136.667 20.0185 137.602 20.973 137.602 22.4744V32H141.708V22.6733C141.708 21.0923 142.613 20.0185 144.154 20.0185C145.507 20.0185 146.521 20.8636 146.521 22.5639V32H150.747V21.7287C150.747 18.4176 148.778 16.5284 145.934 16.5284C143.697 16.5284 141.957 17.6719 141.331 19.4219H141.172C140.684 17.652 139.123 16.5284 137.025 16.5284C134.967 16.5284 133.406 17.6222 132.77 19.4219H132.591V16.7273H128.554V32ZM159.721 32.2486C162.186 32.2486 163.469 30.8267 164.056 29.554H164.235V32H168.411V11.6364H164.185V19.2926H164.056C163.489 18.0497 162.266 16.5284 159.711 16.5284C156.36 16.5284 153.526 19.1335 153.526 24.3835C153.526 29.4943 156.24 32.2486 159.721 32.2486ZM161.063 28.8778C158.985 28.8778 157.851 27.0284 157.851 24.3636C157.851 21.7188 158.965 19.8991 161.063 19.8991C163.121 19.8991 164.275 21.6392 164.275 24.3636C164.275 27.0881 163.101 28.8778 161.063 28.8778ZM178.854 32.2983C182.632 32.2983 185.178 30.4588 185.774 27.625L181.857 27.3665C181.429 28.5298 180.335 29.1364 178.923 29.1364C176.805 29.1364 175.463 27.7344 175.463 25.4574V25.4474H185.864V24.2841C185.864 19.0938 182.722 16.5284 178.685 16.5284C174.19 16.5284 171.277 19.7202 171.277 24.4332C171.277 29.2756 174.151 32.2983 178.854 32.2983ZM175.463 22.8224C175.553 21.0824 176.875 19.6903 178.754 19.6903C180.594 19.6903 181.866 21.0028 181.876 22.8224H175.463ZM201.335 21.0824C200.957 18.2685 198.69 16.5284 194.832 16.5284C190.925 16.5284 188.349 18.3381 188.359 21.2812C188.349 23.5682 189.791 25.0497 192.774 25.6463L195.419 26.1733C196.751 26.4418 197.358 26.929 197.378 27.6946C197.358 28.5994 196.374 29.2457 194.892 29.2457C193.381 29.2457 192.376 28.5994 192.118 27.3565L187.952 27.5753C188.349 30.4986 190.835 32.2983 194.882 32.2983C198.839 32.2983 201.673 30.2798 201.683 27.267C201.673 25.0597 200.232 23.7372 197.268 23.1307L194.504 22.5739C193.082 22.2656 192.555 21.7784 192.565 21.0426C192.555 20.1278 193.589 19.5312 194.902 19.5312C196.374 19.5312 197.249 20.3366 197.457 21.321L201.335 21.0824ZM204.35 32H208.586V16.7273H204.35V32ZM206.478 14.7585C207.741 14.7585 208.775 13.794 208.775 12.6108C208.775 11.4375 207.741 10.473 206.478 10.473C205.225 10.473 204.191 11.4375 204.191 12.6108C204.191 13.794 205.225 14.7585 206.478 14.7585ZM226.218 16.7273H221.734L218.572 27.6548H218.413L215.241 16.7273H210.766L216.106 32H220.879L226.218 16.7273ZM228.386 32H232.621V16.7273H228.386V32ZM230.513 14.7585C231.776 14.7585 232.81 13.794 232.81 12.6108C232.81 11.4375 231.776 10.473 230.513 10.473C229.261 10.473 228.227 11.4375 228.227 12.6108C228.227 13.794 229.261 14.7585 230.513 14.7585ZM236.015 32H240.25V23.3594C240.25 21.4801 241.623 20.1875 243.492 20.1875C244.078 20.1875 244.884 20.2869 245.282 20.4162V16.6577C244.904 16.5682 244.377 16.5085 243.949 16.5085C242.239 16.5085 240.837 17.5028 240.28 19.392H240.121V16.7273H236.015V32ZM265.078 17.4929H269.205C269.145 13.8636 266.162 11.358 261.628 11.358C257.164 11.358 253.892 13.8239 253.912 17.5227C253.902 20.5256 256.02 22.2457 259.461 23.071L261.678 23.6278C263.895 24.1648 265.128 24.8011 265.138 26.1733C265.128 27.6648 263.716 28.679 261.529 28.679C259.292 28.679 257.681 27.6449 257.542 25.6065H253.375C253.485 30.0114 256.637 32.2884 261.578 32.2884C266.55 32.2884 269.473 29.9119 269.483 26.1832C269.473 22.7926 266.918 20.9929 263.378 20.1974L261.549 19.7599C259.779 19.3523 258.297 18.696 258.327 17.2344C258.327 15.9219 259.49 14.9574 261.598 14.9574C263.657 14.9574 264.919 15.892 265.078 17.4929ZM279.26 32.2983C283.038 32.2983 285.584 30.4588 286.18 27.625L282.263 27.3665C281.835 28.5298 280.741 29.1364 279.33 29.1364C277.212 29.1364 275.869 27.7344 275.869 25.4574V25.4474H286.27V24.2841C286.27 19.0938 283.128 16.5284 279.091 16.5284C274.597 16.5284 271.683 19.7202 271.683 24.4332C271.683 29.2756 274.557 32.2983 279.26 32.2983ZM275.869 22.8224C275.959 21.0824 277.281 19.6903 279.161 19.6903C281 19.6903 282.273 21.0028 282.283 22.8224H275.869ZM293.27 11.6364H289.034V32H293.27V11.6364ZM300.899 11.6364H296.663V32H300.899V11.6364ZM311.252 32.2983C315.031 32.2983 317.576 30.4588 318.173 27.625L314.255 27.3665C313.827 28.5298 312.734 29.1364 311.322 29.1364C309.204 29.1364 307.862 27.7344 307.862 25.4574V25.4474H318.262V24.2841C318.262 19.0938 315.12 16.5284 311.083 16.5284C306.589 16.5284 303.675 19.7202 303.675 24.4332C303.675 29.2756 306.549 32.2983 311.252 32.2983ZM307.862 22.8224C307.951 21.0824 309.273 19.6903 311.153 19.6903C312.992 19.6903 314.265 21.0028 314.275 22.8224H307.862ZM321.026 32H325.262V23.3594C325.262 21.4801 326.634 20.1875 328.504 20.1875C329.09 20.1875 329.896 20.2869 330.293 20.4162V16.6577C329.915 16.5682 329.388 16.5085 328.961 16.5085C327.251 16.5085 325.849 17.5028 325.292 19.392H325.133V16.7273H321.026V32ZM345.191 21.0824C344.813 18.2685 342.546 16.5284 338.688 16.5284C334.78 16.5284 332.205 18.3381 332.215 21.2812C332.205 23.5682 333.647 25.0497 336.63 25.6463L339.275 26.1733C340.607 26.4418 341.213 26.929 341.233 27.6946C341.213 28.5994 340.229 29.2457 338.748 29.2457C337.236 29.2457 336.232 28.5994 335.973 27.3565L331.807 27.5753C332.205 30.4986 334.691 32.2983 338.738 32.2983C342.695 32.2983 345.529 30.2798 345.539 27.267C345.529 25.0597 344.087 23.7372 341.124 23.1307L338.36 22.5739C336.938 22.2656 336.411 21.7784 336.421 21.0426C336.411 20.1278 337.445 19.5312 338.757 19.5312C340.229 19.5312 341.104 20.3366 341.313 21.321L345.191 21.0824Z" fill="#002093"/>
<path d="M93.8409 64H95.8523V50.9091H93.8409V64ZM94.8636 48.7273C95.6477 48.7273 96.2955 48.1136 96.2955 47.3636C96.2955 46.6136 95.6477 46 94.8636 46C94.0795 46 93.4318 46.6136 93.4318 47.3636C93.4318 48.1136 94.0795 48.7273 94.8636 48.7273ZM101.548 56.125C101.548 53.8409 102.962 52.5455 104.888 52.5455C106.755 52.5455 107.888 53.7642 107.888 55.8182V64H109.9V55.6818C109.9 52.3409 108.119 50.7386 105.468 50.7386C103.491 50.7386 102.263 51.625 101.65 52.9545H101.479V50.9091H99.5362V64H101.548V56.125ZM121.621 68.9091C123.436 68.9091 124.714 67.946 125.473 65.9091L131.047 50.9432L128.848 50.9091L125.234 61.3409H125.098L121.484 50.9091H119.303L124.143 64.0682L123.768 65.0909C123.036 67.0852 122.132 67.2727 120.666 66.8977L120.155 68.6705C120.359 68.7727 120.939 68.9091 121.621 68.9091ZM138.558 64.2727C142.103 64.2727 144.489 61.5795 144.489 57.5227C144.489 53.4318 142.103 50.7386 138.558 50.7386C135.012 50.7386 132.626 53.4318 132.626 57.5227C132.626 61.5795 135.012 64.2727 138.558 64.2727ZM138.558 62.4659C135.864 62.4659 134.637 60.1477 134.637 57.5227C134.637 54.8977 135.864 52.5455 138.558 52.5455C141.251 52.5455 142.478 54.8977 142.478 57.5227C142.478 60.1477 141.251 62.4659 138.558 62.4659ZM155.81 58.6477C155.81 61.1023 153.935 62.2273 152.435 62.2273C150.764 62.2273 149.571 61 149.571 59.0909V50.9091H147.56V59.2273C147.56 62.5682 149.332 64.1705 151.787 64.1705C153.764 64.1705 155.06 63.1136 155.673 61.7841H155.81V64H157.821V50.9091H155.81V58.6477ZM161.505 64H163.516V55.7159C163.516 53.9432 164.914 52.6477 166.823 52.6477C167.36 52.6477 167.914 52.75 168.05 52.7841V50.7386C167.82 50.7216 167.292 50.7045 166.994 50.7045C165.425 50.7045 164.062 51.5909 163.585 52.8864H163.448V50.9091H161.505V64ZM187.003 50.9091H189.048C188.955 48.2756 186.526 46.3068 183.151 46.3068C179.81 46.3068 177.185 48.25 177.185 51.1818C177.185 53.5341 178.889 54.9318 181.616 55.7159L183.764 56.3295C185.605 56.8409 187.241 57.4886 187.241 59.2273C187.241 61.1364 185.401 62.3977 182.98 62.3977C180.901 62.3977 179.06 61.4773 178.889 59.5H176.707C176.912 62.3636 179.23 64.3068 182.98 64.3068C187.003 64.3068 189.287 62.0909 189.287 59.2614C189.287 55.9886 186.185 54.9318 184.378 54.4545L182.605 53.9773C181.31 53.6364 179.23 52.9545 179.23 51.0795C179.23 49.4091 180.764 48.1818 183.082 48.1818C185.196 48.1818 186.798 49.1875 187.003 50.9091ZM198.183 50.9091H195.387V47.7727H193.376V50.9091H191.398V52.6136H193.376V60.7955C193.376 63.0795 195.217 64.1705 196.921 64.1705C197.671 64.1705 198.148 64.0341 198.421 63.9318L198.012 62.125C197.842 62.1591 197.569 62.2273 197.126 62.2273C196.239 62.2273 195.387 61.9545 195.387 60.25V52.6136H198.183V50.9091ZM205.06 64.3068C207.344 64.3068 208.538 63.0795 208.947 62.2273H209.049V64H211.06V55.375C211.06 51.2159 207.89 50.7386 206.219 50.7386C204.242 50.7386 201.992 51.4205 200.969 53.8068L202.879 54.4886C203.322 53.5341 204.37 52.5114 206.288 52.5114C208.137 52.5114 209.049 53.4915 209.049 55.1705V55.2386C209.049 56.2102 208.06 56.125 205.674 56.4318C203.245 56.7472 200.594 57.2841 200.594 60.2841C200.594 62.8409 202.572 64.3068 205.06 64.3068ZM205.367 62.5C203.765 62.5 202.606 61.7841 202.606 60.3864C202.606 58.8523 204.004 58.375 205.572 58.1705C206.424 58.0682 208.708 57.8295 209.049 57.4205V59.2614C209.049 60.8977 207.754 62.5 205.367 62.5ZM220.425 50.9091H217.629V47.7727H215.618V50.9091H213.641V52.6136H215.618V60.7955C215.618 63.0795 217.459 64.1705 219.163 64.1705C219.913 64.1705 220.391 64.0341 220.663 63.9318L220.254 62.125C220.084 62.1591 219.811 62.2273 219.368 62.2273C218.482 62.2273 217.629 61.9545 217.629 60.25V52.6136H220.425V50.9091ZM228.798 64.2727C231.457 64.2727 233.401 62.9432 234.014 60.9659L232.071 60.4205C231.56 61.7841 230.375 62.4659 228.798 62.4659C226.438 62.4659 224.81 60.9403 224.716 58.1364H234.219V57.2841C234.219 52.4091 231.321 50.7386 228.594 50.7386C225.048 50.7386 222.696 53.5341 222.696 57.5568C222.696 61.5795 225.014 64.2727 228.798 64.2727ZM224.716 56.3977C224.852 54.3608 226.293 52.5455 228.594 52.5455C230.776 52.5455 232.173 54.1818 232.173 56.3977H224.716Z" fill="black"/>
<defs>
<filter id="filter0_d" x="42.4124" y="17.1012" width="26.1727" height="41.8922" filterUnits="userSpaceOnUse" color-interpolation-filters="sRGB">
<feFlood flood-opacity="0" result="BackgroundImageFix"/>
<feColorMatrix in="SourceAlpha" type="matrix" values="0 0 0 0 0 0 0 0 0 0 0 0 0 0 0 0 0 0 127 0"/>
<feOffset dy="0.810526"/>
<feGaussianBlur stdDeviation="0.810526"/>
<feColorMatrix type="matrix" values="0 0 0 0 0 0 0 0 0 0 0 0 0 0 0 0 0 0 0.1 0"/>
<feBlend mode="normal" in2="BackgroundImageFix" result="effect1_dropShadow"/>
<feBlend mode="normal" in="SourceGraphic" in2="effect1_dropShadow" result="shape"/>
</filter>
</defs>
</svg>
