<svg width="476" height="74" viewBox="0 0 476 74" fill="none" xmlns="http://www.w3.org/2000/svg">
<circle cx="37.121" cy="36.8789" r="35.8658" fill="white" stroke="#227C9D" stroke-width="2.02632"/>
<mask id="mask0" mask-type="alpha" maskUnits="userSpaceOnUse" x="0" y="3" width="71" height="71">
<circle cx="35.3789" cy="38.3789" r="35.3789" fill="white"/>
</mask>
<g mask="url(#mask0)">
<path d="M36.3652 13C25.7314 13 16.6518 19.724 13.2981 29.0096H59.596C56.1605 19.724 47.0808 13 36.3652 13Z" fill="#F2B200"/>
<path d="M36.4061 61.8941C47.1406 61.8941 56.2363 55.0706 59.596 45.4518H13.2981C16.6577 55.0706 25.7534 61.8941 36.4061 61.8941Z" fill="#83BF4F"/>
<path d="M13.3853 29.0095C12.4889 31.5581 12 34.3533 12 37.2306C12 40.108 12.4889 42.9032 13.3853 45.4518H59.5087C60.4051 42.9032 60.8941 40.108 60.8941 37.2306C60.8941 34.3533 60.4051 31.5581 59.5087 29.0095H13.3853Z" fill="white"/>
<path d="M36.2307 43.7211C39.8152 43.7211 42.7211 40.8152 42.7211 37.2307C42.7211 33.6462 39.8152 30.7404 36.2307 30.7404C32.6462 30.7404 29.7403 33.6462 29.7403 37.2307C29.7403 40.8152 32.6462 43.7211 36.2307 43.7211Z" fill="#428BC1"/>
<path d="M36.2307 42.8557C39.3373 42.8557 41.8557 40.3373 41.8557 37.2307C41.8557 34.1241 39.3373 31.6057 36.2307 31.6057C33.1241 31.6057 30.6057 34.1241 30.6057 37.2307C30.6057 40.3373 33.1241 42.8557 36.2307 42.8557Z" fill="white"/>
<path d="M34.2468 32.3683C34.4719 32.3683 34.6543 32.1859 34.6543 31.9609C34.6543 31.7358 34.4719 31.5534 34.2468 31.5534C34.0218 31.5534 33.8394 31.7358 33.8394 31.9609C33.8394 32.1859 34.0218 32.3683 34.2468 32.3683Z" fill="#428BC1"/>
<path d="M32.943 33.1018C33.168 33.1018 33.3504 32.9194 33.3504 32.6944C33.3504 32.4693 33.168 32.2869 32.943 32.2869C32.7179 32.2869 32.5355 32.4693 32.5355 32.6944C32.5355 32.9194 32.7179 33.1018 32.943 33.1018Z" fill="#428BC1"/>
<path d="M31.8836 34.1612C32.1087 34.1612 32.2911 33.9787 32.2911 33.7537C32.2911 33.5287 32.1087 33.3463 31.8836 33.3463C31.6586 33.3463 31.4762 33.5287 31.4762 33.7537C31.4762 33.9787 31.6586 34.1612 31.8836 34.1612Z" fill="#428BC1"/>
<path d="M31.1502 35.465C31.3752 35.465 31.5577 35.2826 31.5577 35.0575C31.5577 34.8325 31.3752 34.6501 31.1502 34.6501C30.9252 34.6501 30.7428 34.8325 30.7428 35.0575C30.7428 35.2826 30.9252 35.465 31.1502 35.465Z" fill="#428BC1"/>
<path d="M30.7427 36.9318C30.9678 36.9318 31.1502 36.7494 31.1502 36.5243C31.1502 36.2993 30.9678 36.1169 30.7427 36.1169C30.5177 36.1169 30.3353 36.2993 30.3353 36.5243C30.3353 36.7494 30.5177 36.9318 30.7427 36.9318Z" fill="#428BC1"/>
<path d="M30.7427 38.3986C30.9678 38.3986 31.1502 38.2162 31.1502 37.9912C31.1502 37.7662 30.9678 37.5837 30.7427 37.5837C30.5177 37.5837 30.3353 37.7662 30.3353 37.9912C30.3353 38.2162 30.5177 38.3986 30.7427 38.3986Z" fill="#428BC1"/>
<path d="M31.1502 39.8654C31.3752 39.8654 31.5577 39.683 31.5577 39.458C31.5577 39.233 31.3752 39.0505 31.1502 39.0505C30.9252 39.0505 30.7428 39.233 30.7428 39.458C30.7428 39.683 30.9252 39.8654 31.1502 39.8654Z" fill="#428BC1"/>
<path d="M31.8836 41.1692C32.1087 41.1692 32.2911 40.9868 32.2911 40.7618C32.2911 40.5367 32.1087 40.3543 31.8836 40.3543C31.6586 40.3543 31.4762 40.5367 31.4762 40.7618C31.4762 40.9868 31.6586 41.1692 31.8836 41.1692Z" fill="#428BC1"/>
<path d="M32.943 42.2287C33.168 42.2287 33.3504 42.0462 33.3504 41.8212C33.3504 41.5962 33.168 41.4138 32.943 41.4138C32.7179 41.4138 32.5355 41.5962 32.5355 41.8212C32.5355 42.0462 32.7179 42.2287 32.943 42.2287Z" fill="#428BC1"/>
<path d="M34.2468 42.962C34.4719 42.962 34.6543 42.7796 34.6543 42.5545C34.6543 42.3295 34.4719 42.1471 34.2468 42.1471C34.0218 42.1471 33.8394 42.3295 33.8394 42.5545C33.8394 42.7796 34.0218 42.962 34.2468 42.962Z" fill="#428BC1"/>
<path d="M35.6321 43.288C35.8572 43.288 36.0396 43.1056 36.0396 42.8805C36.0396 42.6555 35.8572 42.4731 35.6321 42.4731C35.4071 42.4731 35.2247 42.6555 35.2247 42.8805C35.2247 43.1056 35.4071 43.288 35.6321 43.288Z" fill="#428BC1"/>
<path d="M36.773 42.962C36.773 42.7176 36.936 42.5546 37.099 42.4731C37.3434 42.4731 37.5064 42.6361 37.5879 42.799C37.5879 43.0435 37.4249 43.2065 37.262 43.288C36.936 43.3695 36.773 43.2065 36.773 42.962Z" fill="#428BC1"/>
<path d="M38.5658 42.962C38.7908 42.962 38.9733 42.7796 38.9733 42.5545C38.9733 42.3295 38.7908 42.1471 38.5658 42.1471C38.3408 42.1471 38.1584 42.3295 38.1584 42.5545C38.1584 42.7796 38.3408 42.962 38.5658 42.962Z" fill="#428BC1"/>
<path d="M39.8697 42.2287C40.0947 42.2287 40.2771 42.0462 40.2771 41.8212C40.2771 41.5962 40.0947 41.4138 39.8697 41.4138C39.6446 41.4138 39.4622 41.5962 39.4622 41.8212C39.4622 42.0462 39.6446 42.2287 39.8697 42.2287Z" fill="#428BC1"/>
<path d="M40.929 41.1692C41.154 41.1692 41.3365 40.9868 41.3365 40.7618C41.3365 40.5367 41.154 40.3543 40.929 40.3543C40.704 40.3543 40.5216 40.5367 40.5216 40.7618C40.5216 40.9868 40.704 41.1692 40.929 41.1692Z" fill="#428BC1"/>
<path d="M41.6624 39.8654C41.8875 39.8654 42.0699 39.683 42.0699 39.458C42.0699 39.233 41.8875 39.0505 41.6624 39.0505C41.4374 39.0505 41.255 39.233 41.255 39.458C41.255 39.683 41.4374 39.8654 41.6624 39.8654Z" fill="#428BC1"/>
<path d="M42.0699 38.3986C42.2949 38.3986 42.4773 38.2162 42.4773 37.9912C42.4773 37.7662 42.2949 37.5837 42.0699 37.5837C41.8448 37.5837 41.6624 37.7662 41.6624 37.9912C41.6624 38.2162 41.8448 38.3986 42.0699 38.3986Z" fill="#428BC1"/>
<path d="M42.0699 36.9318C41.8254 36.9318 41.6624 36.7688 41.5809 36.6058C41.5809 36.3614 41.7439 36.1984 41.9069 36.1169C42.1514 36.1169 42.3143 36.2799 42.3958 36.4428C42.4773 36.6873 42.3143 36.8503 42.0699 36.9318Z" fill="#428BC1"/>
<path d="M41.6624 35.465C41.8875 35.465 42.0699 35.2826 42.0699 35.0575C42.0699 34.8325 41.8875 34.6501 41.6624 34.6501C41.4374 34.6501 41.255 34.8325 41.255 35.0575C41.255 35.2826 41.4374 35.465 41.6624 35.465Z" fill="#428BC1"/>
<path d="M40.929 34.1612C41.154 34.1612 41.3365 33.9787 41.3365 33.7537C41.3365 33.5287 41.154 33.3463 40.929 33.3463C40.704 33.3463 40.5216 33.5287 40.5216 33.7537C40.5216 33.9787 40.704 34.1612 40.929 34.1612Z" fill="#428BC1"/>
<path d="M39.8697 33.1018C40.0947 33.1018 40.2771 32.9194 40.2771 32.6944C40.2771 32.4693 40.0947 32.2869 39.8697 32.2869C39.6446 32.2869 39.4622 32.4693 39.4622 32.6944C39.4622 32.9194 39.6446 33.1018 39.8697 33.1018Z" fill="#428BC1"/>
<path d="M38.9733 32.1238C38.8918 32.3683 38.6473 32.4498 38.4028 32.3683C38.1584 32.2868 38.0769 32.0423 38.1584 31.7979C38.2398 31.5534 38.4843 31.4719 38.7288 31.5534C38.9733 31.7164 39.0547 31.9608 38.9733 32.1238Z" fill="#428BC1"/>
<path d="M37.5064 31.6349C37.5064 31.8794 37.2619 32.0423 37.0175 31.9609C36.773 31.9609 36.61 31.7164 36.6915 31.4719C36.6915 31.2274 36.936 31.0645 37.1805 31.146C37.4249 31.2274 37.5879 31.4719 37.5064 31.6349Z" fill="#428BC1"/>
<path d="M36.0396 31.5535C36.0396 31.7979 35.8766 31.9609 35.7136 32.0424C35.4692 32.0424 35.3062 31.8794 35.2247 31.7164C35.2247 31.472 35.3877 31.309 35.5506 31.2275C35.7951 31.146 36.0396 31.309 36.0396 31.5535Z" fill="#428BC1"/>
<path d="M36.3655 38.48C37.0406 38.48 37.5879 37.9328 37.5879 37.2577C37.5879 36.5826 37.0406 36.0353 36.3655 36.0353C35.6905 36.0353 35.1432 36.5826 35.1432 37.2577C35.1432 37.9328 35.6905 38.48 36.3655 38.48Z" fill="#428BC1"/>
<path d="M36.3656 31.5534L36.2026 35.0575L36.3656 37.2577L36.61 35.0575L36.3656 31.5534Z" fill="#428BC1"/>
<path d="M34.8988 31.7164L35.6322 35.2205L36.3656 37.2578L36.0396 35.0575L34.8988 31.7164Z" fill="#428BC1"/>
<path d="M33.5134 32.2869L35.1432 35.465L36.3656 37.2578L35.4692 35.2206L33.5134 32.2869Z" fill="#428BC1"/>
<path d="M32.3725 33.1832L34.7358 35.8724L36.3656 37.2577L34.9802 35.5464L32.3725 33.1832Z" fill="#428BC1"/>
<path d="M31.4762 34.4056L34.4098 36.3613L36.3656 37.2577L34.5728 35.9539L31.4762 34.4056Z" fill="#428BC1"/>
<path d="M30.9057 35.791L34.2468 36.8503L36.3656 37.2578L34.3283 36.5244L30.9057 35.791Z" fill="#428BC1"/>
<path d="M30.6613 37.2578L34.2468 37.4207L36.3656 37.2578L34.2468 37.0948L30.6613 37.2578Z" fill="#428BC1"/>
<path d="M30.9057 38.7246L34.3283 37.9912L36.3656 37.2578L34.2468 37.6652L30.9057 38.7246Z" fill="#428BC1"/>
<path d="M31.4762 40.1099L34.5728 38.5616L36.3656 37.2578L34.4098 38.1541L31.4762 40.1099Z" fill="#428BC1"/>
<path d="M32.3725 41.2508L34.9802 38.969L36.3656 37.2578L34.7358 38.6431L32.3725 41.2508Z" fill="#428BC1"/>
<path d="M33.5134 42.2286L35.4692 39.2135L36.3656 37.2578L35.1432 39.0505L33.5134 42.2286Z" fill="#428BC1"/>
<path d="M34.8988 42.7991L36.0396 39.458L36.3656 37.2578L35.6322 39.295L34.8988 42.7991Z" fill="#428BC1"/>
<path d="M36.3656 42.9621L36.61 39.458L36.3656 37.2578L36.2026 39.458L36.3656 42.9621Z" fill="#428BC1"/>
<path d="M37.8324 42.7991L37.1805 39.295L36.3656 37.2578L36.773 39.458L37.8324 42.7991Z" fill="#428BC1"/>
<path d="M39.2177 42.2286L37.6694 39.0505L36.3656 37.2578L37.3435 39.295L39.2177 42.2286Z" fill="#428BC1"/>
<path d="M40.4401 41.2508L38.0769 38.6431L36.3656 37.2578L37.8324 38.969L40.4401 41.2508Z" fill="#428BC1"/>
<path d="M41.3365 40.1099L38.4028 38.1541L36.3656 37.2578L38.1584 38.5616L41.3365 40.1099Z" fill="#428BC1"/>
<path d="M41.9069 38.7246L38.5658 37.6652L36.3656 37.2578L38.4843 37.9912L41.9069 38.7246Z" fill="#428BC1"/>
<path d="M42.0699 37.2577L38.5658 37.0132L36.3656 37.2577L38.5658 37.4207L42.0699 37.2577Z" fill="#428BC1"/>
<path d="M41.9069 35.791L38.4843 36.5244L36.3656 37.2578L38.5658 36.8503L41.9069 35.791Z" fill="#428BC1"/>
<path d="M41.3365 34.4056L38.1584 35.9539L36.3656 37.2577L38.4028 36.3613L41.3365 34.4056Z" fill="#428BC1"/>
<path d="M40.4401 33.2647L37.8324 35.5464L36.3656 37.2577L38.0769 35.8724L40.4401 33.2647Z" fill="#428BC1"/>
<path d="M39.2177 32.2869L37.3435 35.3021L36.3656 37.2578L37.6694 35.465L39.2177 32.2869Z" fill="#428BC1"/>
<path d="M37.9139 31.7164L36.773 35.0575L36.3656 37.2578L37.1805 35.2205L37.9139 31.7164Z" fill="#428BC1"/>
<g filter="url(#filter0_d)">
<path d="M56.3081 20.2471L65.4399 22.1674L56.3081 20.2471Z" fill="white"/>
<path d="M56.3081 20.2471L65.4399 22.1674" stroke="#227C9D" stroke-width="1.85746" stroke-linecap="round" stroke-linejoin="round"/>
<path d="M60.874 21.2073L58.7136 31.4806L60.874 21.2073Z" fill="white"/>
<path d="M60.874 21.2073L58.7136 31.4806" stroke="#227C9D" stroke-width="1.85746" stroke-linecap="round" stroke-linejoin="round"/>
<path d="M51.8648 30.0403L65.5625 32.9208L51.8648 30.0403Z" fill="white"/>
<path d="M51.8648 30.0403L65.5625 32.9208" stroke="#227C9D" stroke-width="1.85746" stroke-linecap="round" stroke-linejoin="round"/>
<path d="M62.9484 33.1491L60.159 47.28L54.633 50.8857L51.0272 45.3596L53.8166 31.2288" fill="white"/>
<path d="M62.9484 33.1491L60.159 47.28L54.633 50.8857L51.0272 45.3596L53.8166 31.2288" stroke="#227C9D" stroke-width="1.85746" stroke-linecap="round" stroke-linejoin="round"/>
<path d="M51.7473 41.9352L55.1718 42.6554L51.7473 41.9352Z" fill="white"/>
<path d="M51.7473 41.9352L55.1718 42.6554" stroke="#227C9D" stroke-width="1.85746" stroke-linecap="round" stroke-linejoin="round"/>
<path d="M53.1876 35.0863L56.612 35.8064L53.1876 35.0863Z" fill="white"/>
<path d="M53.1876 35.0863L56.612 35.8064" stroke="#227C9D" stroke-width="1.85746" stroke-linecap="round" stroke-linejoin="round"/>
<path d="M53.1927 57.7346L54.6329 50.8857L53.1927 57.7346Z" fill="white"/>
<path d="M53.1927 57.7346L54.6329 50.8857" stroke="#227C9D" stroke-width="1.85746" stroke-linecap="round" stroke-linejoin="round"/>
</g>
</g>
<path d="M93.7699 32H98.0753V24.7812H101.217L105.075 32H109.828L105.503 24.0852C107.82 23.0909 109.102 21.0724 109.102 18.2884C109.102 14.2415 106.428 11.6364 101.804 11.6364H93.7699V32ZM98.0753 21.321V15.1562H100.979C103.464 15.1562 104.668 16.2599 104.668 18.2884C104.668 20.3068 103.464 21.321 100.999 21.321H98.0753ZM118.779 32.2983C122.558 32.2983 125.103 30.4588 125.7 27.625L121.782 27.3665C121.355 28.5298 120.261 29.1364 118.849 29.1364C116.731 29.1364 115.389 27.7344 115.389 25.4574V25.4474H125.789V24.2841C125.789 19.0938 122.647 16.5284 118.61 16.5284C114.116 16.5284 111.203 19.7202 111.203 24.4332C111.203 29.2756 114.076 32.2983 118.779 32.2983ZM115.389 22.8224C115.478 21.0824 116.801 19.6903 118.68 19.6903C120.52 19.6903 121.792 21.0028 121.802 22.8224H115.389ZM128.554 32H132.789V22.8324C132.789 21.142 133.863 20.0185 135.275 20.0185C136.667 20.0185 137.602 20.973 137.602 22.4744V32H141.708V22.6733C141.708 21.0923 142.613 20.0185 144.154 20.0185C145.507 20.0185 146.521 20.8636 146.521 22.5639V32H150.747V21.7287C150.747 18.4176 148.778 16.5284 145.934 16.5284C143.697 16.5284 141.957 17.6719 141.331 19.4219H141.172C140.684 17.652 139.123 16.5284 137.025 16.5284C134.967 16.5284 133.406 17.6222 132.77 19.4219H132.591V16.7273H128.554V32ZM159.721 32.2486C162.186 32.2486 163.469 30.8267 164.056 29.554H164.235V32H168.411V11.6364H164.185V19.2926H164.056C163.489 18.0497 162.266 16.5284 159.711 16.5284C156.36 16.5284 153.526 19.1335 153.526 24.3835C153.526 29.4943 156.24 32.2486 159.721 32.2486ZM161.063 28.8778C158.985 28.8778 157.851 27.0284 157.851 24.3636C157.851 21.7188 158.965 19.8991 161.063 19.8991C163.121 19.8991 164.275 21.6392 164.275 24.3636C164.275 27.0881 163.101 28.8778 161.063 28.8778ZM178.854 32.2983C182.632 32.2983 185.178 30.4588 185.774 27.625L181.857 27.3665C181.429 28.5298 180.335 29.1364 178.923 29.1364C176.805 29.1364 175.463 27.7344 175.463 25.4574V25.4474H185.864V24.2841C185.864 19.0938 182.722 16.5284 178.685 16.5284C174.19 16.5284 171.277 19.7202 171.277 24.4332C171.277 29.2756 174.151 32.2983 178.854 32.2983ZM175.463 22.8224C175.553 21.0824 176.875 19.6903 178.754 19.6903C180.594 19.6903 181.866 21.0028 181.876 22.8224H175.463ZM201.335 21.0824C200.957 18.2685 198.69 16.5284 194.832 16.5284C190.925 16.5284 188.349 18.3381 188.359 21.2812C188.349 23.5682 189.791 25.0497 192.774 25.6463L195.419 26.1733C196.751 26.4418 197.358 26.929 197.378 27.6946C197.358 28.5994 196.374 29.2457 194.892 29.2457C193.381 29.2457 192.376 28.5994 192.118 27.3565L187.952 27.5753C188.349 30.4986 190.835 32.2983 194.882 32.2983C198.839 32.2983 201.673 30.2798 201.683 27.267C201.673 25.0597 200.232 23.7372 197.268 23.1307L194.504 22.5739C193.082 22.2656 192.555 21.7784 192.565 21.0426C192.555 20.1278 193.589 19.5312 194.902 19.5312C196.374 19.5312 197.249 20.3366 197.457 21.321L201.335 21.0824ZM204.35 32H208.586V16.7273H204.35V32ZM206.478 14.7585C207.741 14.7585 208.775 13.794 208.775 12.6108C208.775 11.4375 207.741 10.473 206.478 10.473C205.225 10.473 204.191 11.4375 204.191 12.6108C204.191 13.794 205.225 14.7585 206.478 14.7585ZM226.218 16.7273H221.734L218.572 27.6548H218.413L215.241 16.7273H210.766L216.106 32H220.879L226.218 16.7273ZM228.386 32H232.621V16.7273H228.386V32ZM230.513 14.7585C231.776 14.7585 232.81 13.794 232.81 12.6108C232.81 11.4375 231.776 10.473 230.513 10.473C229.261 10.473 228.227 11.4375 228.227 12.6108C228.227 13.794 229.261 14.7585 230.513 14.7585ZM236.015 32H240.25V23.3594C240.25 21.4801 241.623 20.1875 243.492 20.1875C244.078 20.1875 244.884 20.2869 245.282 20.4162V16.6577C244.904 16.5682 244.377 16.5085 243.949 16.5085C242.239 16.5085 240.837 17.5028 240.28 19.392H240.121V16.7273H236.015V32ZM265.078 17.4929H269.205C269.145 13.8636 266.162 11.358 261.628 11.358C257.164 11.358 253.892 13.8239 253.912 17.5227C253.902 20.5256 256.02 22.2457 259.461 23.071L261.678 23.6278C263.895 24.1648 265.128 24.8011 265.138 26.1733C265.128 27.6648 263.716 28.679 261.529 28.679C259.292 28.679 257.681 27.6449 257.542 25.6065H253.375C253.485 30.0114 256.637 32.2884 261.578 32.2884C266.55 32.2884 269.473 29.9119 269.483 26.1832C269.473 22.7926 266.918 20.9929 263.378 20.1974L261.549 19.7599C259.779 19.3523 258.297 18.696 258.327 17.2344C258.327 15.9219 259.49 14.9574 261.598 14.9574C263.657 14.9574 264.919 15.892 265.078 17.4929ZM279.26 32.2983C283.038 32.2983 285.584 30.4588 286.18 27.625L282.263 27.3665C281.835 28.5298 280.741 29.1364 279.33 29.1364C277.212 29.1364 275.869 27.7344 275.869 25.4574V25.4474H286.27V24.2841C286.27 19.0938 283.128 16.5284 279.091 16.5284C274.597 16.5284 271.683 19.7202 271.683 24.4332C271.683 29.2756 274.557 32.2983 279.26 32.2983ZM275.869 22.8224C275.959 21.0824 277.281 19.6903 279.161 19.6903C281 19.6903 282.273 21.0028 282.283 22.8224H275.869ZM293.27 11.6364H289.034V32H293.27V11.6364ZM300.899 11.6364H296.663V32H300.899V11.6364ZM311.252 32.2983C315.031 32.2983 317.576 30.4588 318.173 27.625L314.255 27.3665C313.827 28.5298 312.734 29.1364 311.322 29.1364C309.204 29.1364 307.862 27.7344 307.862 25.4574V25.4474H318.262V24.2841C318.262 19.0938 315.12 16.5284 311.083 16.5284C306.589 16.5284 303.675 19.7202 303.675 24.4332C303.675 29.2756 306.549 32.2983 311.252 32.2983ZM307.862 22.8224C307.951 21.0824 309.273 19.6903 311.153 19.6903C312.992 19.6903 314.265 21.0028 314.275 22.8224H307.862ZM321.026 32H325.262V23.3594C325.262 21.4801 326.634 20.1875 328.504 20.1875C329.09 20.1875 329.896 20.2869 330.293 20.4162V16.6577C329.915 16.5682 329.388 16.5085 328.961 16.5085C327.251 16.5085 325.849 17.5028 325.292 19.392H325.133V16.7273H321.026V32ZM345.191 21.0824C344.813 18.2685 342.546 16.5284 338.688 16.5284C334.78 16.5284 332.205 18.3381 332.215 21.2812C332.205 23.5682 333.647 25.0497 336.63 25.6463L339.275 26.1733C340.607 26.4418 341.213 26.929 341.233 27.6946C341.213 28.5994 340.229 29.2457 338.748 29.2457C337.236 29.2457 336.232 28.5994 335.973 27.3565L331.807 27.5753C332.205 30.4986 334.691 32.2983 338.738 32.2983C342.695 32.2983 345.529 30.2798 345.539 27.267C345.529 25.0597 344.087 23.7372 341.124 23.1307L338.36 22.5739C336.938 22.2656 336.411 21.7784 336.421 21.0426C336.411 20.1278 337.445 19.5312 338.757 19.5312C340.229 19.5312 341.104 20.3366 341.313 21.321L345.191 21.0824Z" fill="#227C9D"/>
<path d="M93.8409 64H95.8523V50.9091H93.8409V64ZM94.8636 48.7273C95.6477 48.7273 96.2955 48.1136 96.2955 47.3636C96.2955 46.6136 95.6477 46 94.8636 46C94.0795 46 93.4318 46.6136 93.4318 47.3636C93.4318 48.1136 94.0795 48.7273 94.8636 48.7273ZM101.548 56.125C101.548 53.8409 102.962 52.5455 104.888 52.5455C106.755 52.5455 107.888 53.7642 107.888 55.8182V64H109.9V55.6818C109.9 52.3409 108.119 50.7386 105.468 50.7386C103.491 50.7386 102.263 51.625 101.65 52.9545H101.479V50.9091H99.5362V64H101.548V56.125ZM121.621 68.9091C123.436 68.9091 124.714 67.946 125.473 65.9091L131.047 50.9432L128.848 50.9091L125.234 61.3409H125.098L121.484 50.9091H119.303L124.143 64.0682L123.768 65.0909C123.036 67.0852 122.132 67.2727 120.666 66.8977L120.155 68.6705C120.359 68.7727 120.939 68.9091 121.621 68.9091ZM138.558 64.2727C142.103 64.2727 144.489 61.5795 144.489 57.5227C144.489 53.4318 142.103 50.7386 138.558 50.7386C135.012 50.7386 132.626 53.4318 132.626 57.5227C132.626 61.5795 135.012 64.2727 138.558 64.2727ZM138.558 62.4659C135.864 62.4659 134.637 60.1477 134.637 57.5227C134.637 54.8977 135.864 52.5455 138.558 52.5455C141.251 52.5455 142.478 54.8977 142.478 57.5227C142.478 60.1477 141.251 62.4659 138.558 62.4659ZM155.81 58.6477C155.81 61.1023 153.935 62.2273 152.435 62.2273C150.764 62.2273 149.571 61 149.571 59.0909V50.9091H147.56V59.2273C147.56 62.5682 149.332 64.1705 151.787 64.1705C153.764 64.1705 155.06 63.1136 155.673 61.7841H155.81V64H157.821V50.9091H155.81V58.6477ZM161.505 64H163.516V55.7159C163.516 53.9432 164.914 52.6477 166.823 52.6477C167.36 52.6477 167.914 52.75 168.05 52.7841V50.7386C167.82 50.7216 167.292 50.7045 166.994 50.7045C165.425 50.7045 164.062 51.5909 163.585 52.8864H163.448V50.9091H161.505V64ZM187.003 50.9091H189.048C188.955 48.2756 186.526 46.3068 183.151 46.3068C179.81 46.3068 177.185 48.25 177.185 51.1818C177.185 53.5341 178.889 54.9318 181.616 55.7159L183.764 56.3295C185.605 56.8409 187.241 57.4886 187.241 59.2273C187.241 61.1364 185.401 62.3977 182.98 62.3977C180.901 62.3977 179.06 61.4773 178.889 59.5H176.707C176.912 62.3636 179.23 64.3068 182.98 64.3068C187.003 64.3068 189.287 62.0909 189.287 59.2614C189.287 55.9886 186.185 54.9318 184.378 54.4545L182.605 53.9773C181.31 53.6364 179.23 52.9545 179.23 51.0795C179.23 49.4091 180.764 48.1818 183.082 48.1818C185.196 48.1818 186.798 49.1875 187.003 50.9091ZM198.183 50.9091H195.387V47.7727H193.376V50.9091H191.398V52.6136H193.376V60.7955C193.376 63.0795 195.217 64.1705 196.921 64.1705C197.671 64.1705 198.148 64.0341 198.421 63.9318L198.012 62.125C197.842 62.1591 197.569 62.2273 197.126 62.2273C196.239 62.2273 195.387 61.9545 195.387 60.25V52.6136H198.183V50.9091ZM205.06 64.3068C207.344 64.3068 208.538 63.0795 208.947 62.2273H209.049V64H211.06V55.375C211.06 51.2159 207.89 50.7386 206.219 50.7386C204.242 50.7386 201.992 51.4205 200.969 53.8068L202.879 54.4886C203.322 53.5341 204.37 52.5114 206.288 52.5114C208.137 52.5114 209.049 53.4915 209.049 55.1705V55.2386C209.049 56.2102 208.06 56.125 205.674 56.4318C203.245 56.7472 200.594 57.2841 200.594 60.2841C200.594 62.8409 202.572 64.3068 205.06 64.3068ZM205.367 62.5C203.765 62.5 202.606 61.7841 202.606 60.3864C202.606 58.8523 204.004 58.375 205.572 58.1705C206.424 58.0682 208.708 57.8295 209.049 57.4205V59.2614C209.049 60.8977 207.754 62.5 205.367 62.5ZM220.425 50.9091H217.629V47.7727H215.618V50.9091H213.641V52.6136H215.618V60.7955C215.618 63.0795 217.459 64.1705 219.163 64.1705C219.913 64.1705 220.391 64.0341 220.663 63.9318L220.254 62.125C220.084 62.1591 219.811 62.2273 219.368 62.2273C218.482 62.2273 217.629 61.9545 217.629 60.25V52.6136H220.425V50.9091ZM228.798 64.2727C231.457 64.2727 233.401 62.9432 234.014 60.9659L232.071 60.4205C231.56 61.7841 230.375 62.4659 228.798 62.4659C226.438 62.4659 224.81 60.9403 224.716 58.1364H234.219V57.2841C234.219 52.4091 231.321 50.7386 228.594 50.7386C225.048 50.7386 222.696 53.5341 222.696 57.5568C222.696 61.5795 225.014 64.2727 228.798 64.2727ZM224.716 56.3977C224.852 54.3608 226.293 52.5455 228.594 52.5455C230.776 52.5455 232.173 54.1818 232.173 56.3977H224.716Z" fill="black"/>
<defs>
<filter id="filter0_d" x="42.4868" y="14.5455" width="29.0021" height="46.906" filterUnits="userSpaceOnUse" color-interpolation-filters="sRGB">
<feFlood flood-opacity="0" result="BackgroundImageFix"/>
<feColorMatrix in="SourceAlpha" type="matrix" values="0 0 0 0 0 0 0 0 0 0 0 0 0 0 0 0 0 0 127 0"/>
<feOffset dy="0.810526"/>
<feGaussianBlur stdDeviation="0.810526"/>
<feColorMatrix type="matrix" values="0 0 0 0 0 0 0 0 0 0 0 0 0 0 0 0 0 0 0.1 0"/>
<feBlend mode="normal" in2="BackgroundImageFix" result="effect1_dropShadow"/>
<feBlend mode="normal" in="SourceGraphic" in2="effect1_dropShadow" result="shape"/>
</filter>
</defs>
</svg>
